<svg xmlns="http://www.w3.org/2000/svg" xmlns:xlink="http://www.w3.org/1999/xlink" width="165" height="95.599" viewBox="0 0 165 95.599">
  <defs>
    <filter id="class_job_028" x="0" y="0" width="165" height="95.599" filterUnits="userSpaceOnUse">
      <feOffset dx="2" dy="2" input="SourceAlpha"/>
      <feGaussianBlur stdDeviation="2.5" result="blur"/>
      <feFlood flood-color="#256a1d"/>
      <feComposite operator="in" in2="blur"/>
      <feComposite in="SourceGraphic"/>
    </filter>
  </defs>
  <g transform="matrix(1, 0, 0, 1, 0, 0)" filter="url(#class_job_028)">
    <path id="class_job_028-2" data-name="class_job_028" d="M206.969,188a25.608,25.608,0,0,0-3.125-3.906q-7.031-1.953-9.766,3.516a18.829,18.829,0,0,0-1.367,6.445,20.176,20.176,0,0,0,.2,5.273q2.734,5.859,2.734,9.375a16.678,16.678,0,0,1-16.406,16.406,15.129,15.129,0,0,1-11.328-4.883,16.088,16.088,0,0,1-4.687-11.523,24.949,24.949,0,0,1,6.25-17.187q3.906-4.3,14.063-10.547l7.031-4.688-.781-.391a42.924,42.924,0,0,0-15.234-8.594Q161.656,163,139,163t-35.547,4.3a52.8,52.8,0,0,0-15.234,8.594l-.781.391,7.031,4.688q10.156,6.25,14.063,10.547a24.949,24.949,0,0,1,6.25,17.188,15.713,15.713,0,0,1-2.148,8.008,17.377,17.377,0,0,1-5.859,6.055,14.721,14.721,0,0,1-8.008,2.344,15.706,15.706,0,0,1-8.2-2.344,16.862,16.862,0,0,1-6.055-6.055,15.023,15.023,0,0,1-2.148-7.617q0-3.906,2.734-9.766a20.177,20.177,0,0,0,.2-5.273,18.829,18.829,0,0,0-1.367-6.445q-2.734-5.469-9.766-3.516A25.6,25.6,0,0,0,71.031,188a52.525,52.525,0,0,0-4.687,9.375A32.617,32.617,0,0,0,64,208.7a34.99,34.99,0,0,0,27.148,33.984A33.091,33.091,0,0,0,114,239.953a34.611,34.611,0,0,0,16.211-16.6,33.124,33.124,0,0,0,2.344-22.852,33.686,33.686,0,0,0-12.7-19.141,41.831,41.831,0,0,1,9.766-2.734,41.644,41.644,0,0,1,9.375-.781,41.645,41.645,0,0,1,9.375.781,41.832,41.832,0,0,1,9.766,2.734,33.686,33.686,0,0,0-12.7,19.141,33.124,33.124,0,0,0,2.344,22.852A34.611,34.611,0,0,0,164,239.953a33.091,33.091,0,0,0,22.852,2.734A34.99,34.99,0,0,0,214,208.7a32.618,32.618,0,0,0-2.344-11.328A52.531,52.531,0,0,0,206.969,188Z" transform="translate(-58.5 -157.5)" fill="#fff"/>
  </g>
</svg>
