<svg xmlns="http://www.w3.org/2000/svg" width="146.816" height="150.563" viewBox="0 0 146.816 150.563"><defs><style>.a{fill:#fff;}</style></defs><path class="a" d="M232.92,96.449q-7.406,10.456-15.248,20.911l-1.307,2.614q-3.05,3.921-9.149,10.456l-75.8,74.933a51.368,51.368,0,0,0,22.436,6.971,50.268,50.268,0,0,0,23.09-3.7,45.109,45.109,0,0,0,18.515-13.941,51.712,51.712,0,0,0,10.02-21.129q.871-5.228,3.7-7.188a8.669,8.669,0,0,1,5.664-1.743,9.09,9.09,0,0,1,5.446,2.614q2.614,2.4,2.178,6.753-3.05,20.04-15.248,33.546l.871,3.921a32.067,32.067,0,0,1,1.743,8.277q.436,4.356-1.96,6.317t-5.881.653a37.048,37.048,0,0,1-6.1-3.485q-5.228-3.05-6.1-2.178a66.017,66.017,0,0,1-71.883-4.792L97,231.067a23.647,23.647,0,0,1-4.574,2.178,3.346,3.346,0,0,1-2.4,0l-1.307-1.307a3.347,3.347,0,0,1,0-2.4,23.652,23.652,0,0,1,2.178-4.574l15.248-20.911,1.743-2.614a76.555,76.555,0,0,1,9.149-10.456L185,123.46a44.885,44.885,0,0,0-24.615-8.5,49.125,49.125,0,0,0-25.7,5.664,47.737,47.737,0,0,0-18.951,17.862,48.37,48.37,0,0,0-6.97,25.486,12.632,12.632,0,0,1-1.743,6.753A7.134,7.134,0,0,1,101.352,174a7.649,7.649,0,0,1-6.753-2.614,10.489,10.489,0,0,1-2.832-7.406,66.264,66.264,0,0,1,47.487-63.606q1.307,0,2.832-5.446t2.4-7.624q2.178-3.921,4.792-4.357t5.664,3.485a50.948,50.948,0,0,1,4.357,6.97q2.614,4.792,3.485,4.792A64.864,64.864,0,0,1,197.2,111.7q6.535-6.1,8.277-6.535L227.256,90.35q3.921-2.614,6.1-2.614a1.4,1.4,0,0,1,1.307.871l.436.871a3.346,3.346,0,0,1,0,2.4A23.647,23.647,0,0,1,232.92,96.449Z" transform="translate(-88.5 -82.9)"/></svg>