<?xml version="1.0" encoding="UTF-8"?>
<svg id="Layer_1" data-name="Layer 1" xmlns="http://www.w3.org/2000/svg" version="1.1" viewBox="0 0 97 121">
  <defs>
    <style>
      .cls-1 {
        fill: #ffffff;
      }

      .cls-1, .cls-2, .cls-3 {
        stroke-width: 0px;
      }

      .cls-2 {
        fill: #ffffff;
      }

      .cls-3 {
        fill: #ffffff;
      }
    </style>
  </defs>
  <path class="cls-2" d="M79.23,83.24c-1.4,10.82-3.55,21.4-10.4,30.34-.75.98-1.54,2.84-2.91,2.24-1.54-.67-.26-2.37-.12-3.57,2.01-17.26,3.54-34.47-3.36-51.14,1.45-2.37,1.61-4.88.87-7.52-.84-3.04.01-4.82,3.53-4.45,1.69,7.59,6.11,14.57,5.19,22.76-3.86-2.5-2.35,5.53-.65,7.12,3.43,3.21.83,1.33,4.65.3,1.25.34,2.49.68,3.74,1.02,0,.47,0,.94-.01,1.41-.17.5-.35.99-.52,1.49Z"/>
  <path class="cls-2" d="M31.34,93.12c.14,1.33.29,2.65.43,3.98-.16.29-.12.55.11.79.64,5.76,2.34,12.33,1.4,18.08-13.96-8.3-15.04-38.74-18.17-52.91.25-1.95.51-3.9.76-5.86,3.47,2.09,4.67-.34,5.81-2.9,3.61,5.69,3.08,11.97,2.62,18.25-3.96-.3-2.47,2.55-1.72,3.81,1.06,1.79-.66,6.73,4.46,4.63,1.3,1.06,2.6,2.12,3.9,3.18.03.9.06,1.8.09,2.7.05,1.08.11,2.16.16,3.24.02.6.05,1.19.07,1.79.02.41.05.82.07,1.23Z"/>
  <path class="cls-2" d="M74.46,23.97c3.47-4.23,5.09-9.18,5.66-14.54,1.56,10.28,4.78,17.91,6,3.35,4.26,5.65,6.11,12.19,7.04,19.07.12.45.24.9.36,1.35.04,1.21.08,2.42.12,3.63-3.29,3.79-2.59,9.3-5.68,13.18-1.85.82-3.67,1.85-5.75.68,5.63-2.8,4.32-27.7-3.31-20l-1.94-3.69c.62-2.21-.96-2.61-2.5-3.04Z"/>
  <path class="cls-3" d="M30.95,84.17c-1.3-1.06-2.6-2.12-3.9-3.18.13-.65.26-1.3.39-1.94.08-.41.16-.81.25-1.22-.05-.61-.11-1.22-.16-1.83,2.68-5.72,2.43-11.85,2.5-17.94.78-2.85,1.57-5.7,2.35-8.55,2.04-7.47.05-11.84-6.6-14.47,1.97-.29,3.1-1.72,4.26-3.11,1.23.27,2.47.54,3.7.82,2.27.85,3.45,2.63,4.28,4.8.35.92.9,2.6,2.04.41,1.79,5.63.99,11.1-.72,16.61-3.05,9.79-7.71,19.13-8.38,29.6ZM32.8,59.85c.72-.5,4.18-7.88,2.38-7.54-2.06.38-4.36,6.12-2.38,7.54Z"/>
  <path class="cls-3" d="M76.95,27.01c.65,1.23,1.29,2.46,1.94,3.7-2.06,5.09-7.77,3-10.53,6.78-2.32,3.18-1.49,8.03-1.52,11.66-3.51-.37-4.37,1.42-3.53,4.45.74,2.65.57,5.15-.87,7.52-5.94-9.78-4.61-20.06-2.07-30.42,6.28,2.14,11.86,1.15,16.58-3.69Z"/>
  <path class="cls-3" d="M87.95,50.02c3.09-3.88,2.39-9.39,5.68-13.18.7,6.98.89,19.56-3.68,24.38-1.46,1.54-3.28-.61-5.66,2.41-2.75,3.47-3.36,12.4-4.52,16.71-1.25-.34-2.49-.68-3.74-1.02.39-1.42.78-2.85,1.16-4.27,1.02-1.3.92-2.78.55-4.24-1.32-5.14-1.4-9.97,3.24-13.7,3.19-1.52,7.53-1.89,6.97-7.09Z"/>
  <path class="cls-2" d="M5.87,34.08c.24-8.4,3.53-15.69,8.09-22.54.02,3.3.05,6.6.07,9.91-3.16,6.22-3.32,12.94-3.23,19.7.03,2.21.21,4.38,2.95,5.01.71,1.41,1.42,2.82,2.14,4.23-1.9,1.85-3.36.25-4.91-.63-2.87-2.4-1.85-5.71-1.9-8.7-.05-2.89-.14-5.57-3.22-6.98Z"/>
  <path class="cls-3" d="M5.87,34.08c3.08,1.41,3.18,4.09,3.22,6.98.05,2.99-.97,6.3,1.9,8.7-1.15,4.31,2.97,5.16,4.89,7.45-.25,1.95-.51,3.9-.76,5.86-2.76-3.05-5.6-1.24-7.6-3.89-3.52-4.68-2.81-19.71-1.64-25.09Z"/>
  <path class="cls-1" d="M33.73,32.75c-1.23-.27-2.47-.54-3.7-.82-2.02-1-4.04-2-6.05-2.99-1.68-.84-2.3-2.44-2.89-4.06.91-.69,1.63-1.48,1.54-2.73,2.64,1.93,5.03,4.36,8.62,4.42,0,0,.17.21.17.21,0,0,.2-.18.2-.18,1.81.11,3.61.22,5.42.34.22.46.45.93.67,1.39,0,.44.02.89.03,1.33-1.63.65-3.1,1.5-4,3.09Z"/>
  <path class="cls-1" d="M76.95,27.01c-4.73,4.83-10.31,5.83-16.58,3.69,1.03-.46,1.4-1.26,1.16-2.34.12-.42.23-.85.35-1.28,0,0,.27-.06.27-.06.32.07.57-.03.75-.3,2.14-.1,4.27-.19,6.41-.29,0,0,.18.17.18.17l.09-.23c1.63-.8,3.26-1.59,4.9-2.39,1.54.43,3.12.83,2.5,3.04Z"/>
  <path class="cls-1" d="M86.12,12.78c-1.22,14.56-4.44,6.93-6-3.35-.32-1.78-.27-3.55.16-5.3,2.82,2.16,4.14,5.58,5.84,8.65Z"/>
  <path class="cls-1" d="M14.03,21.44c-.02-3.3-.05-6.61-.07-9.91.75-1.87,2.22-6.72,4.82-7.38.02,1.58.04,3.17.06,4.75-2.3,4.02-1.76,8.67-2.84,12.96-.65-.14-1.31-.28-1.96-.42Z"/>
  <path class="cls-2" d="M15.99,21.87c1.08-4.29.54-8.94,2.84-12.96-.48,4.92,2.03,8.97,3.79,13.24.09,1.25-.63,2.04-1.54,2.73-1.7-1-3.39-2.01-5.09-3.01Z"/>
  <path class="cls-2" d="M33.73,32.75c.9-1.58,2.37-2.44,4-3.09.77,2.77,1.55,5.53,2.32,8.3-1.14,2.19-1.69.51-2.04-.41-.83-2.18-2.01-3.95-4.28-4.8Z"/>
  <path class="cls-3" d="M31.2,90.11c-.05-1.08-.11-2.16-.16-3.24.67,1.05.67,2.13.16,3.24Z"/>
  <path class="cls-2" d="M37.7,28.33c-.22-.46-.45-.93-.67-1.39,1.1.04.99.67.67,1.39Z"/>
  <path class="cls-3" d="M61.88,27.08c-.12.43-.23.86-.35,1.28.12-.43.23-.85.35-1.28Z"/>
  <path class="cls-3" d="M93.51,33.2c-.12-.45-.24-.9-.36-1.35.12.45.24.9.36,1.35Z"/>
  <path class="cls-2" d="M31.62,26.6l-.2.18s-.18-.21-.17-.21.2-.21.2-.21l.17.23Z"/>
  <path class="cls-2" d="M62.89,26.71c-.18.27-.43.37-.75.3.25-.1.5-.2.75-.3Z"/>
  <path class="cls-3" d="M79.23,83.24c.17-.5.35-.99.52-1.49-.17.5-.35.99-.52,1.49Z"/>
  <polygon class="cls-2" points="69.56 26.36 69.47 26.59 69.3 26.42 69.38 26.2 69.56 26.36"/>
  <path class="cls-3" d="M31.34,93.12c-.02-.41-.05-.82-.07-1.23.02.41.05.82.07,1.23Z"/>
  <path class="cls-3" d="M31.89,97.89c-.23-.24-.27-.5-.11-.79.11.26.15.52.11.79Z"/>
  <path class="cls-1" d="M72.03,71.91c.22,1.2.45,2.4.67,3.59,1.69-.41,1.26-2.1,1.91-3.14,2.19-.38,2.54,1.01,2.58,2.69-.39,1.42-.78,2.85-1.16,4.27-3.82,1.04-1.22,2.91-4.65-.3-1.7-1.59-3.21-9.62.65-7.12Z"/>
  <path class="cls-1" d="M18.75,51c.98,1.1,1.95,2.2,2.93,3.3-1.14,2.56-2.34,4.99-5.81,2.9-1.93-2.29-6.04-3.14-4.89-7.45,1.55.88,3.01,2.48,4.91.63.69.09,1.39.19,2.09.28.15.31.4.42.77.33Z"/>
  <path class="cls-1" d="M24.31,72.55c.68.93.39,3.39,2.72,1.74-.38.73-.41,1.35.5,1.71.05.61.11,1.22.16,1.82-.08.41-.16.82-.25,1.22-.13.65-.26,1.3-.39,1.94-5.12,2.1-3.4-2.84-4.46-4.63-.75-1.26-2.24-4.11,1.72-3.81Z"/>
  <path class="cls-1" d="M78.43,52.23c.98-1.2,2.37-1.37,3.77-1.53,2.09,1.16,3.91.13,5.75-.69.56,5.2-3.79,5.57-6.97,7.09-.02-2.06-1.17-3.53-2.55-4.88Z"/>
  <path class="cls-2" d="M27.52,76c-.91-.35-.88-.98-.5-1.71.36-5.53.46-11.1,2.99-16.23-.07,6.09.18,12.22-2.5,17.94Z"/>
  <path class="cls-2" d="M25.77,35.04c-.9-.63-1.8-1.26-2.71-1.9.3-1.4.61-2.81.91-4.21,2.02,1,4.04,2,6.05,2.99-1.16,1.39-2.29,2.83-4.26,3.11Z"/>
  <path class="cls-2" d="M32.8,59.85c-1.97-1.42.32-7.16,2.38-7.54,1.8-.33-1.66,7.04-2.38,7.54Z"/>
  <path class="cls-2" d="M27.44,79.05c.08-.41.17-.82.25-1.22-.08.41-.16.82-.25,1.22Z"/>
  <path class="cls-2" d="M78.43,52.23c1.38,1.35,2.54,2.82,2.55,4.88-4.63,3.73-4.56,8.56-3.24,13.7.37,1.46.47,2.93-.55,4.24-.04-1.68-.4-3.06-2.58-2.69-1.01-6.28.42-12.34,1.75-18.4.21-.98.89-1.73,2.06-1.73Z"/>
  <path class="cls-3" d="M23.98,28.93c-.3,1.4-.61,2.81-.91,4.21-3.73-2.99-4.72-6.61-8.07-2.14-2.24,2.99-1.14,11.68-1.24,15.15-2.74-.64-2.92-2.8-2.95-5.01-.09-6.76.07-13.47,3.23-19.7.65.14,1.31.28,1.96.42,1.7,1,3.39,2.01,5.09,3.01.59,1.62,1.21,3.22,2.89,4.06Z"/>
  <path class="cls-2" d="M18.75,51c-.36.09-.62-.02-.77-.33.26.11.51.22.77.33Z"/>
</svg>