<svg width="97" height="121" viewBox="0 0 97 121" fill="none" xmlns="http://www.w3.org/2000/svg">
<path d="M79.23 83.24C77.83 94.06 75.68 104.64 68.83 113.58C68.08 114.56 67.29 116.42 65.92 115.82C64.38 115.15 65.66 113.45 65.8 112.25C67.81 94.99 69.34 77.78 62.44 61.11C63.89 58.74 64.05 56.23 63.31 53.59C62.47 50.55 63.32 48.77 66.84 49.14C68.53 56.73 72.95 63.71 72.03 71.9C68.17 69.4 69.68 77.43 71.38 79.02C74.81 82.23 72.21 80.35 76.03 79.32C77.28 79.66 78.52 80 79.77 80.34C79.77 80.81 79.77 81.28 79.76 81.75C79.59 82.25 79.41 82.74 79.24 83.24H79.23Z" fill="white"/>
<path d="M31.34 93.12C31.48 94.45 31.63 95.77 31.77 97.1C31.61 97.39 31.65 97.65 31.88 97.89C32.52 103.65 34.22 110.22 33.28 115.97C19.32 107.67 18.24 77.23 15.11 63.06C15.36 61.11 15.62 59.16 15.87 57.2C19.34 59.29 20.54 56.86 21.68 54.3C25.29 59.99 24.76 66.27 24.3 72.55C20.34 72.25 21.83 75.1 22.58 76.36C23.64 78.15 21.92 83.09 27.04 80.99C28.34 82.05 29.64 83.11 30.94 84.17C30.97 85.07 31 85.97 31.03 86.87C31.08 87.95 31.14 89.03 31.19 90.11C31.21 90.71 31.24 91.3 31.26 91.9C31.28 92.31 31.31 92.72 31.33 93.13L31.34 93.12Z" fill="white"/>
<path d="M74.46 23.97C77.93 19.74 79.55 14.79 80.12 9.42999C81.68 19.71 84.9 27.34 86.12 12.78C90.38 18.43 92.23 24.97 93.16 31.85C93.28 32.3 93.4 32.75 93.52 33.2C93.56 34.41 93.6 35.62 93.64 36.83C90.35 40.62 91.05 46.13 87.96 50.01C86.11 50.83 84.29 51.86 82.21 50.69C87.84 47.89 86.53 22.99 78.9 30.69L76.96 27C77.58 24.79 76 24.39 74.46 23.96V23.97Z" fill="white"/>
<path d="M30.95 84.17C29.65 83.11 28.35 82.05 27.05 80.99C27.18 80.34 27.31 79.69 27.44 79.05C27.52 78.64 27.6 78.24 27.69 77.83C27.64 77.22 27.58 76.61 27.53 76C30.21 70.28 29.96 64.15 30.03 58.06C30.81 55.21 31.6 52.36 32.38 49.51C34.42 42.04 32.43 37.67 25.78 35.04C27.75 34.75 28.88 33.32 30.04 31.93C31.27 32.2 32.51 32.47 33.74 32.75C36.01 33.6 37.19 35.38 38.02 37.55C38.37 38.47 38.92 40.15 40.06 37.96C41.85 43.59 41.05 49.06 39.34 54.57C36.29 64.36 31.63 73.7 30.96 84.17H30.95ZM32.8 59.85C33.52 59.35 36.98 51.97 35.18 52.31C33.12 52.69 30.82 58.43 32.8 59.85Z" fill="white"/>
<path d="M76.95 27.01C77.6 28.24 78.24 29.47 78.89 30.71C76.83 35.8 71.12 33.71 68.36 37.49C66.04 40.67 66.87 45.52 66.84 49.15C63.33 48.78 62.47 50.57 63.31 53.6C64.05 56.25 63.88 58.75 62.44 61.12C56.5 51.34 57.83 41.06 60.37 30.7C66.65 32.84 72.23 31.85 76.95 27.01Z" fill="white"/>
<path d="M87.95 50.02C91.04 46.14 90.34 40.63 93.63 36.84C94.33 43.82 94.52 56.4 89.95 61.22C88.49 62.76 86.67 60.61 84.29 63.63C81.54 67.1 80.93 76.03 79.77 80.34C78.52 80 77.28 79.66 76.03 79.32C76.42 77.9 76.81 76.47 77.19 75.05C78.21 73.75 78.11 72.27 77.74 70.81C76.42 65.67 76.34 60.84 80.98 57.11C84.17 55.59 88.51 55.22 87.95 50.02Z" fill="white"/>
<path d="M5.87 34.08C6.11 25.68 9.4 18.39 13.96 11.54C13.98 14.84 14.01 18.14 14.03 21.45C10.87 27.67 10.71 34.39 10.8 41.15C10.83 43.36 11.01 45.53 13.75 46.16C14.46 47.57 15.17 48.98 15.89 50.39C13.99 52.24 12.53 50.64 10.98 49.76C8.11 47.36 9.13 44.05 9.08 41.06C9.03 38.17 8.94 35.49 5.86 34.08H5.87Z" fill="white"/>
<path d="M5.87 34.08C8.95 35.49 9.05001 38.17 9.09001 41.06C9.14001 44.05 8.12001 47.36 10.99 49.76C9.84001 54.07 13.96 54.92 15.88 57.21C15.63 59.16 15.37 61.11 15.12 63.07C12.36 60.02 9.52 61.83 7.52 59.18C4.00001 54.5 4.71001 39.47 5.88001 34.09L5.87 34.08Z" fill="white"/>
<path d="M33.73 32.75C32.5 32.48 31.26 32.21 30.03 31.93C28.01 30.93 25.99 29.93 23.98 28.94C22.3 28.1 21.68 26.5 21.09 24.88C22 24.19 22.72 23.4 22.63 22.15C25.27 24.08 27.66 26.51 31.25 26.57L31.42 26.78L31.62 26.6C33.43 26.71 35.23 26.82 37.04 26.94C37.26 27.4 37.49 27.87 37.71 28.33C37.71 28.77 37.73 29.22 37.74 29.66C36.11 30.31 34.64 31.16 33.74 32.75H33.73Z" fill="white"/>
<path d="M76.95 27.01C72.22 31.84 66.64 32.84 60.37 30.7C61.4 30.24 61.77 29.44 61.53 28.36C61.65 27.94 61.76 27.51 61.88 27.08L62.15 27.02C62.47 27.09 62.72 26.99 62.9 26.72C65.04 26.62 67.17 26.53 69.31 26.43L69.49 26.6L69.58 26.37C71.21 25.57 72.84 24.78 74.48 23.98C76.02 24.41 77.6 24.81 76.98 27.02L76.95 27.01Z" fill="white"/>
<path d="M86.12 12.78C84.9 27.34 81.68 19.71 80.12 9.43001C79.8 7.65001 79.85 5.88 80.28 4.13C83.1 6.29 84.42 9.71 86.12 12.78Z" fill="white"/>
<path d="M14.03 21.44C14.01 18.14 13.98 14.83 13.96 11.53C14.71 9.65999 16.18 4.80999 18.78 4.14999C18.8 5.72999 18.82 7.31999 18.84 8.89999C16.54 12.92 17.08 17.57 16 21.86C15.35 21.72 14.69 21.58 14.04 21.44H14.03Z" fill="white"/>
<path d="M15.99 21.87C17.07 17.58 16.53 12.93 18.83 8.91C18.35 13.83 20.86 17.88 22.62 22.15C22.71 23.4 21.99 24.19 21.08 24.88C19.38 23.88 17.69 22.87 15.99 21.87Z" fill="white"/>
<path d="M33.73 32.75C34.63 31.17 36.1 30.31 37.73 29.66C38.5 32.43 39.28 35.19 40.05 37.96C38.91 40.15 38.36 38.47 38.01 37.55C37.18 35.37 36 33.6 33.73 32.75Z" fill="white"/>
<path d="M37.7 28.33C37.48 27.87 37.25 27.4 37.03 26.94C38.13 26.98 38.02 27.61 37.7 28.33Z" fill="white"/>
<path d="M61.88 27.08C61.76 27.51 61.65 27.94 61.53 28.36C61.65 27.93 61.76 27.51 61.88 27.08Z" fill="white"/>
<path d="M31.62 26.6L31.42 26.78C31.42 26.78 31.24 26.57 31.25 26.57C31.26 26.57 31.45 26.36 31.45 26.36L31.62 26.59V26.6Z" fill="white"/>
<path d="M62.89 26.71C62.71 26.98 62.46 27.08 62.14 27.01C62.39 26.91 62.64 26.81 62.89 26.71Z" fill="white"/>
<path d="M69.56 26.36L69.47 26.59L69.3 26.42L69.38 26.2L69.56 26.36Z" fill="white"/>
<path d="M31.89 97.89C31.66 97.65 31.62 97.39 31.78 97.1C31.89 97.36 31.93 97.62 31.89 97.89Z" fill="white"/>
<path d="M72.03 71.91C72.25 73.11 72.48 74.31 72.7 75.5C74.39 75.09 73.96 73.4 74.61 72.36C76.8 71.98 77.15 73.37 77.19 75.05C76.8 76.47 76.41 77.9 76.03 79.32C72.21 80.36 74.81 82.23 71.38 79.02C69.68 77.43 68.17 69.4 72.03 71.9V71.91Z" fill="white"/>
<path d="M18.75 51C19.73 52.1 20.7 53.2 21.68 54.3C20.54 56.86 19.34 59.29 15.87 57.2C13.94 54.91 9.82999 54.06 10.98 49.75C12.53 50.63 13.99 52.23 15.89 50.38C16.58 50.47 17.28 50.57 17.98 50.66C18.13 50.97 18.38 51.08 18.75 50.99V51Z" fill="white"/>
<path d="M24.31 72.55C24.99 73.48 24.7 75.94 27.03 74.29C26.65 75.02 26.62 75.64 27.53 76C27.58 76.61 27.64 77.22 27.69 77.82C27.61 78.23 27.53 78.64 27.44 79.04C27.31 79.69 27.18 80.34 27.05 80.98C21.93 83.08 23.65 78.14 22.59 76.35C21.84 75.09 20.35 72.24 24.31 72.54V72.55Z" fill="white"/>
<path d="M78.43 52.23C79.41 51.03 80.8 50.86 82.2 50.7C84.29 51.86 86.11 50.83 87.95 50.01C88.51 55.21 84.16 55.58 80.98 57.1C80.96 55.04 79.81 53.57 78.43 52.22V52.23Z" fill="white"/>
<path d="M27.52 76C26.61 75.65 26.64 75.02 27.02 74.29C27.38 68.76 27.48 63.19 30.01 58.06C29.94 64.15 30.19 70.28 27.51 76H27.52Z" fill="white"/>
<path d="M25.77 35.04C24.87 34.41 23.97 33.78 23.06 33.14C23.36 31.74 23.67 30.33 23.97 28.93C25.99 29.93 28.01 30.93 30.02 31.92C28.86 33.31 27.73 34.75 25.76 35.03L25.77 35.04Z" fill="white"/>
<path d="M32.8 59.85C30.83 58.43 33.12 52.69 35.18 52.31C36.98 51.98 33.52 59.35 32.8 59.85Z" fill="white"/>
<path d="M27.44 79.05C27.52 78.64 27.61 78.23 27.69 77.83C27.61 78.24 27.53 78.65 27.44 79.05Z" fill="white"/>
<path d="M78.43 52.23C79.81 53.58 80.97 55.05 80.98 57.11C76.35 60.84 76.42 65.67 77.74 70.81C78.11 72.27 78.21 73.74 77.19 75.05C77.15 73.37 76.79 71.99 74.61 72.36C73.6 66.08 75.03 60.02 76.36 53.96C76.57 52.98 77.25 52.23 78.42 52.23H78.43Z" fill="white"/>
<path d="M23.98 28.93C23.68 30.33 23.37 31.74 23.07 33.14C19.34 30.15 18.35 26.53 15 31C12.76 33.99 13.86 42.68 13.76 46.15C11.02 45.51 10.84 43.35 10.81 41.14C10.72 34.38 10.88 27.67 14.04 21.44C14.69 21.58 15.35 21.72 16 21.86C17.7 22.86 19.39 23.87 21.09 24.87C21.68 26.49 22.3 28.09 23.98 28.93Z" fill="white"/>
<path d="M18.75 51C18.39 51.09 18.13 50.98 17.98 50.67C18.24 50.78 18.49 50.89 18.75 51Z" fill="white"/>
<path d="M13.5 46L11.5 44.5L10.5 39.5V35.5L11.5 28L14.5 21" stroke="white"/>
<path d="M23 22.5L20.5 25.5" stroke="white"/>
<path d="M26 35L28.5 34L30 32" stroke="white"/>
<path d="M78.5 30.5L77 26.5L73.5 30.5L66.5 32" stroke="white"/>
<path d="M75 24L77 25" stroke="white"/>
<path d="M88 51.5L87 54L85.5 55.5L81.5 57" stroke="white"/>
<path d="M78.5 52.5L80.5 54.5" stroke="white"/>
<path d="M78 74L76.5 76.5V80.5" stroke="white"/>
<path d="M30 58.5V66L29 72L27.5 76" stroke="white"/>
<path d="M21.5 74L23 78.5L24 82L27 81L30 84" stroke="white"/>
</svg>
