<svg xmlns="http://www.w3.org/2000/svg" width="66.947" height="35.972" viewBox="0 0 66.947 35.972">
  <path id="class_job_028" d="M127.809,174.158a11.426,11.426,0,0,0-1.395-1.743q-3.138-.872-4.359,1.569a8.4,8.4,0,0,0-.61,2.877,9.006,9.006,0,0,0,.087,2.354,10.667,10.667,0,0,1,1.22,4.184,7.444,7.444,0,0,1-7.322,7.322,6.752,6.752,0,0,1-5.056-2.179,7.18,7.18,0,0,1-2.092-5.143,11.135,11.135,0,0,1,2.789-7.671,30.678,30.678,0,0,1,6.276-4.707l3.138-2.092-.349-.174a19.157,19.157,0,0,0-6.8-3.835Q107.585,163,97.473,163t-15.865,1.918a23.566,23.566,0,0,0-6.8,3.835l-.349.174L77.6,171.02a30.678,30.678,0,0,1,6.276,4.707,11.135,11.135,0,0,1,2.789,7.671,7.013,7.013,0,0,1-.959,3.574,7.755,7.755,0,0,1-2.615,2.7,6.57,6.57,0,0,1-3.574,1.046,7.01,7.01,0,0,1-3.661-1.046,7.526,7.526,0,0,1-2.7-2.7,6.705,6.705,0,0,1-.959-3.4,10.835,10.835,0,0,1,1.22-4.359,9,9,0,0,0,.087-2.354,8.4,8.4,0,0,0-.61-2.877q-1.22-2.441-4.359-1.569a11.423,11.423,0,0,0-1.395,1.743,23.441,23.441,0,0,0-2.092,4.184A14.557,14.557,0,0,0,64,183.4a15.617,15.617,0,0,0,12.117,15.168,14.769,14.769,0,0,0,10.2-1.22,15.447,15.447,0,0,0,7.235-7.409,14.784,14.784,0,0,0,1.046-10.2,15.034,15.034,0,0,0-5.666-8.543,23.01,23.01,0,0,1,8.543-1.569,23.01,23.01,0,0,1,8.543,1.569,15.034,15.034,0,0,0-5.666,8.543,14.784,14.784,0,0,0,1.046,10.2,15.447,15.447,0,0,0,7.235,7.409,14.769,14.769,0,0,0,10.2,1.22A15.616,15.616,0,0,0,130.947,183.4a14.557,14.557,0,0,0-1.046-5.056A23.445,23.445,0,0,0,127.809,174.158Z" transform="translate(-64 -163)" fill="#fff"/>
</svg>
