<?xml version="1.0" encoding="UTF-8"?>
<svg id="Layer_1" data-name="Layer 1" xmlns="http://www.w3.org/2000/svg" version="1.1" viewBox="0 0 124 107.41">
  <defs>
    <style>
      .cls-1 {
        fill: #ffffff;
      }

      .cls-1, .cls-2 {
        stroke-width: 0px;
      }

      .cls-2 {
        fill: #ffffff;
      }
    </style>
  </defs>
  <path class="cls-1" d="M52.02,13.1c1.11-.07,2.23-.13,3.61-.22-1.32,2.83-3.5,3.81-5.78,4.93-16.44,8.06-28.52,19.74-31.34,38.81-1.18,8.03.86,15.11,6.37,21.23,3.01,3.34,5.99,6.74,3.55,11.97-2.77,5.93-7.31,7.55-12.87,4.14-6.17-3.79-8.56-9.91-10.24-16.49-3.86-15.1-1.96-28.97,8.55-41.07,2.47,3.9-.98,7.53-.91,11.32,1.13.05,1.51-.32,1.87-.99,6.63-12.26,15.93-21.86,28.32-28.4,3.03-1.6,5.91-3.47,8.86-5.22ZM11.9,73.8c2.57,3.78,2.65,8.24,7.12,9.86-.08-5.59-1.66-7.97-7.12-9.86Z"/>
  <path class="cls-1" d="M47.08,87.93c2.82-12.09,4.62-24.66,15.81-32.71-1.08,2.46-2.15,4.93-3.83,8.77,5.97-2.3,8.51-7.29,13.71-8.02,5.79-.81,9.01,3.25,12.92,5.98,1.55-1.53,2.64-2.95,1.79-5.02,4.52,2.22,6.5,6.09,5.6,10.8-1.6,8.41-4.23,16.6-11.54,21.94-7.34,5.36-15.4,9.42-24.54,10.82-7.2,1.1-14.17.21-21.12-2.58.28-4.79,4.38-4.93,7.16-6.5.22,1.78,1.58,1.3,2.66,1.31,3.49.04,7.21-.76,10.42.2,10.84,3.26,18.14-3.04,25.77-8.7,1.2-.89,1.49-2.1.37-3.24-2.02-.5-3,1.57-4.72,1.56,2.12-2.72,4.49-5.28,5.8-8.55,1.95-4.88.24-9.36-4.86-12.72-3.78-2.49-6.97-1.71-10.95,2.07-7.45,7.07-10.39,15.9-10.72,25.87-3.59-2.96-1.6-7.44-2.88-11.37-4.09,2.41-2.95,8-6.86,10.08Z"/>
  <path class="cls-1" d="M121.44,4.98c1.93,1.95-.02,3.44-.8,4.81-4.44,7.79-8.92,15.56-13.66,23.17-3.6,5.77-5.68,11.91-6.11,18.67-.15,2.34-.7,4.57-2.24,6.42-1.95.47-2.73-1.09-3.67-2.09-4.49-4.8-9.24-9-16.1-10.16-3.08-.52-3.85-2.47-1.4-4.9,1.17-1.16,2.26-2.46,4-2.83.89,4.03,4.58,2.08,6.83,3.2,4.57,2.27,7.26-.24,9.67-3.71,7.63-11,15.16-22.07,23.48-32.57Z"/>
  <path class="cls-2" d="M121.44,4.98c-8.33,10.5-15.85,21.57-23.48,32.57-2.4,3.46-5.1,5.98-9.67,3.71-2.25-1.12-5.94.83-6.83-3.2,13.39-4.12,19.79-15.89,28.07-25.61,2.37-2.78,4.64-5.68,7.23-8.24,1.54-1.52,3.71-2.95,4.68.78Z"/>
  <path class="cls-2" d="M52.02,13.1c-2.95,1.75-5.83,3.62-8.86,5.22-12.39,6.54-21.69,16.14-28.32,28.4-.36.67-.74,1.04-1.87.99-.07-3.79,3.38-7.42.91-11.32,8.51-10.48,19.14-17.96,31.82-22.6,2.1-.77,4.16-.94,6.32-.69Z"/>
  <path class="cls-2" d="M77.55,82.55c1.71,0,2.69-2.06,4.72-1.56,1.12,1.14.82,2.35-.37,3.24-7.63,5.66-14.93,11.96-25.77,8.7-3.2-.96-6.93-.17-10.42-.2-1.08-.01-2.44.47-2.66-1.31.75-1.84,2.99-1.97,4.03-3.48,3.91-2.08,2.78-7.67,6.86-10.08,1.29,3.93-.71,8.41,2.88,11.37.63,1.05,1.68.83,2.63.87,7.2.3,12.87-3.1,18.1-7.54Z"/>
  <path class="cls-1" d="M56.96,35.85c1.78,2.89,1.59,5.78-.89,7.97-3.77,3.33-8.24,4.04-12.94,2.05-6.16-2.62-7.28-5.08-4.68-9.91,1.43.32,3.09.29,4.25,1.04,5.12,3.26,9.7,1.6,14.25-1.15Z"/>
  <path class="cls-2" d="M87.47,56.92c.84,2.06-.24,3.49-1.79,5.02-3.9-2.73-7.13-6.79-12.92-5.98-5.2.73-7.74,5.73-13.71,8.02,1.68-3.84,2.76-6.31,3.83-8.77,5.68-5.67,11.95-7.49,19.38-3.29,2.22,1.26,3.47,3.34,5.21,5Z"/>
  <path class="cls-1" d="M43.05,55.09c5.4,4.47,4.84,8.74-1.47,11.33-6.55,2.69-12.63.03-13.56-6-.34-2.23-.36-4.45,2.94-4.31,6.35,5.4,8.3,5.24,12.1-1.01Z"/>
  <path class="cls-2" d="M56.96,35.85c-4.55,2.75-9.13,4.41-14.25,1.15-1.17-.74-2.82-.71-4.25-1.04,5.01-6.44,12.51-6.49,18.51-.11Z"/>
  <path class="cls-1" d="M75.5,23.51c2.62,1.26,2.62,3.27,1.29,5.36-2.32,3.66-10.4,3.98-12.93.48-1.42-1.96-1.54-4.04.95-5.5,1.91.91,3.81,1.82,5.77,2.75,1.89-.65,2.6-3.2,4.92-3.08Z"/>
  <path class="cls-2" d="M43.05,55.09c-3.8,6.25-5.75,6.42-12.1,1.01,3.69-4.4,7.96-1.88,12.1-1.01Z"/>
  <path class="cls-2" d="M75.5,23.51c-2.33-.11-3.04,2.43-4.92,3.08-1.95-.93-3.86-1.84-5.77-2.75,3.46-3.49,7.03-3.38,10.69-.34Z"/>
  <path class="cls-2" d="M11.9,73.8c5.46,1.88,7.04,4.26,7.12,9.86-4.47-1.62-4.55-6.08-7.12-9.86Z"/>
</svg>